<svg width="16" height="17" viewBox="0 0 16 17" fill="none" xmlns="http://www.w3.org/2000/svg">
<g clip-path="url(#clip0_2261_2792)">
<path fill-rule="evenodd" clip-rule="evenodd" d="M12.7585 5.46667H11.3333V4.80001C11.3333 2.95907 9.84094 1.46667 8 1.46667C6.15906 1.46667 4.66667 2.95907 4.66667 4.80001V5.46667H3.24149C2.19221 5.46667 1.32134 6.27757 1.24658 7.32419L0.872412 12.5625C0.734586 14.4921 2.26281 16.1333 4.19728 16.1333H11.8027C13.7372 16.1333 15.2654 14.4921 15.1276 12.5625L14.7534 7.32419C14.6787 6.27757 13.8078 5.46667 12.7585 5.46667ZM10 4.80001V5.46667H6V4.80001C6 3.69544 6.89543 2.80001 8 2.80001C9.10457 2.80001 10 3.69544 10 4.80001ZM2.57652 7.41917C2.60144 7.0703 2.89173 6.80001 3.24149 6.80001H12.7585C13.1083 6.80001 13.3986 7.0703 13.4235 7.41917L13.7977 12.6575C13.8803 13.8152 12.9634 14.8 11.8027 14.8H4.19728C3.03659 14.8 2.11966 13.8152 2.20237 12.6575L2.57652 7.41917ZM5.99984 8.80009C5.99984 8.43189 5.70137 8.13342 5.33317 8.13342C4.96497 8.13342 4.6665 8.43189 4.6665 8.80009C4.6665 10.641 6.1589 12.1334 7.99984 12.1334C9.84078 12.1334 11.3332 10.641 11.3332 8.80009C11.3332 8.43189 11.0347 8.13342 10.6665 8.13342C10.2983 8.13342 9.99984 8.43189 9.99984 8.80009C9.99984 9.90466 9.10441 10.8001 7.99984 10.8001C6.89527 10.8001 5.99984 9.90466 5.99984 8.80009Z" fill="#4B5563"/>
</g>
<defs>
<clipPath id="clip0_2261_2792">
<rect width="16" height="16" fill="white" transform="translate(0 0.800049)"/>
</clipPath>
</defs>
</svg>
