<svg width="16" height="16" viewBox="0 0 16 16" fill="none" xmlns="http://www.w3.org/2000/svg">
<g clip-path="url(#clip0_2033_4644)">
<path d="M14.6667 10C14.6667 12.58 12.58 14.6667 10 14.6667L10.7 13.5" stroke="#4B5563" stroke-width="1.5" stroke-linecap="round" stroke-linejoin="round"/>
<path d="M1.33337 6.00004C1.33337 3.42004 3.42004 1.33337 6.00004 1.33337L5.30004 2.50004" stroke="#4B5563" stroke-width="1.5" stroke-linecap="round" stroke-linejoin="round"/>
<path d="M9.1333 2.96667L11.7866 4.5L14.4132 2.97335" stroke="#4B5563" stroke-width="1.5" stroke-linecap="round" stroke-linejoin="round"/>
<path d="M11.7866 7.21329V4.49329" stroke="#4B5563" stroke-width="1.5" stroke-linecap="round" stroke-linejoin="round"/>
<path d="M11.16 1.47337L9.56002 2.36001C9.20002 2.56001 8.90002 3.06667 8.90002 3.48001V5.17337C8.90002 5.5867 9.19336 6.09336 9.56002 6.29336L11.16 7.18004C11.5 7.37337 12.06 7.37337 12.4067 7.18004L14.0067 6.29336C14.3667 6.09336 14.6667 5.5867 14.6667 5.17337V3.48001C14.6667 3.06667 14.3734 2.56001 14.0067 2.36001L12.4067 1.47337C12.0667 1.28671 11.5067 1.28671 11.16 1.47337Z" stroke="#4B5563" stroke-width="1.5" stroke-linecap="round" stroke-linejoin="round"/>
<path d="M1.56665 10.3L4.21332 11.8333L6.84666 10.3067" stroke="#4B5563" stroke-width="1.5" stroke-linecap="round" stroke-linejoin="round"/>
<path d="M4.21326 14.5467V11.8267" stroke="#4B5563" stroke-width="1.5" stroke-linecap="round" stroke-linejoin="round"/>
<path d="M3.59337 8.80663L1.99338 9.69329C1.63338 9.89329 1.33337 10.3999 1.33337 10.8132V12.5066C1.33337 12.92 1.62671 13.4266 1.99338 13.6266L3.59337 14.5133C3.93337 14.7066 4.49337 14.7066 4.84003 14.5133L6.44004 13.6266C6.80004 13.4266 7.10004 12.92 7.10004 12.5066V10.8132C7.10004 10.3999 6.80671 9.89329 6.44004 9.69329L4.84003 8.80663C4.49337 8.61996 3.93337 8.61996 3.59337 8.80663Z" stroke="#4B5563" stroke-width="1.5" stroke-linecap="round" stroke-linejoin="round"/>
</g>
<defs>
<clipPath id="clip0_2033_4644">
<rect width="16" height="16" fill="white"/>
</clipPath>
</defs>
</svg>
