<svg width="156" height="46" viewBox="0 0 156 46" fill="none" xmlns="http://www.w3.org/2000/svg">
<g clip-path="url(#clip0_2023_5596)">
<path d="M23.144 31H18.384L7.606 14.714V31H2.846V7.234H7.606L18.384 23.554V7.234H23.144V31ZM28.698 11.11V17.06H36.688V20.834H28.698V27.124H37.708V31H23.938V7.234H37.708V11.11H28.698ZM52.3357 31L47.2017 23.01L42.5437 31H37.1717L44.6517 19.032L37.0697 7.268H42.5437L47.6777 15.224L52.3017 7.268H57.6737L50.2277 19.202L57.8097 31H52.3357ZM73.6723 7.268V11.11H67.3483V31H62.5883V11.11H56.2643V7.268H73.6723ZM76.2709 19.1C76.2709 16.7653 76.7922 14.68 77.8349 12.844C78.9002 10.9853 80.3395 9.546 82.1529 8.526C83.9889 7.48333 86.0402 6.962 88.3069 6.962C90.9589 6.962 93.2822 7.642 95.2769 9.002C97.2715 10.362 98.6655 12.2433 99.4589 14.646H93.9849C93.4409 13.5127 92.6702 12.6627 91.6729 12.096C90.6982 11.5293 89.5649 11.246 88.2729 11.246C86.8902 11.246 85.6549 11.5747 84.5669 12.232C83.5015 12.8667 82.6629 13.7733 82.0509 14.952C81.4615 16.1307 81.1669 17.5133 81.1669 19.1C81.1669 20.664 81.4615 22.0467 82.0509 23.248C82.6629 24.4267 83.5015 25.3447 84.5669 26.002C85.6549 26.6367 86.8902 26.954 88.2729 26.954C89.5649 26.954 90.6982 26.6707 91.6729 26.104C92.6702 25.5147 93.4409 24.6533 93.9849 23.52H99.4589C98.6655 25.9453 97.2715 27.838 95.2769 29.198C93.3049 30.5353 90.9815 31.204 88.3069 31.204C86.0402 31.204 83.9889 30.694 82.1529 29.674C80.3395 28.6313 78.9002 27.192 77.8349 25.356C76.7922 23.52 76.2709 21.4347 76.2709 19.1ZM114.167 26.478H104.715L103.151 31H98.1525L106.687 7.234H112.229L120.763 31H115.731L114.167 26.478ZM112.875 22.67L109.441 12.742L106.007 22.67H112.875ZM132.282 31L127.046 21.752H124.802V31H120.042V7.268H128.95C130.786 7.268 132.35 7.59667 133.642 8.254C134.934 8.88867 135.898 9.76133 136.532 10.872C137.19 11.96 137.518 13.184 137.518 14.544C137.518 16.108 137.065 17.5247 136.158 18.794C135.252 20.0407 133.903 20.902 132.112 21.378L137.79 31H132.282ZM124.802 18.182H128.78C130.072 18.182 131.036 17.876 131.67 17.264C132.305 16.6293 132.622 15.7567 132.622 14.646C132.622 13.558 132.305 12.7193 131.67 12.13C131.036 11.518 130.072 11.212 128.78 11.212H124.802V18.182ZM154.064 7.268V11.11H147.74V31H142.98V11.11H136.656V7.268H154.064Z" fill="#111827"/>
<path d="M85.578 41.87C85.578 42.1127 85.564 42.3693 85.536 42.64H79.404C79.4507 43.396 79.7073 43.9887 80.174 44.418C80.65 44.838 81.224 45.048 81.896 45.048C82.4467 45.048 82.904 44.922 83.268 44.67C83.6413 44.4087 83.9027 44.0633 84.052 43.634H85.424C85.2187 44.3713 84.808 44.9733 84.192 45.44C83.576 45.8973 82.8107 46.126 81.896 46.126C81.168 46.126 80.5147 45.9627 79.936 45.636C79.3667 45.3093 78.9187 44.8473 78.592 44.25C78.2653 43.6433 78.102 42.9433 78.102 42.15C78.102 41.3567 78.2607 40.6613 78.578 40.064C78.8953 39.4667 79.3387 39.0093 79.908 38.692C80.4867 38.3653 81.1493 38.202 81.896 38.202C82.624 38.202 83.268 38.3607 83.828 38.678C84.388 38.9953 84.8173 39.434 85.116 39.994C85.424 40.5447 85.578 41.17 85.578 41.87ZM84.262 41.604C84.262 41.1187 84.1547 40.7033 83.94 40.358C83.7253 40.0033 83.4313 39.7373 83.058 39.56C82.694 39.3733 82.288 39.28 81.84 39.28C81.196 39.28 80.6453 39.4853 80.188 39.896C79.74 40.3067 79.4833 40.876 79.418 41.604H84.262ZM85.3836 41.114C85.3836 40.162 85.5983 39.308 86.0276 38.552C86.457 37.7867 87.0403 37.1893 87.7776 36.76C88.5243 36.3307 89.3503 36.116 90.2556 36.116C91.3196 36.116 92.2483 36.3727 93.0416 36.886C93.835 37.3993 94.4136 38.1273 94.7776 39.07H93.2516C92.981 38.482 92.589 38.0293 92.0756 37.712C91.5716 37.3947 90.965 37.236 90.2556 37.236C89.5743 37.236 88.963 37.3947 88.4216 37.712C87.8803 38.0293 87.4556 38.482 87.1476 39.07C86.8396 39.6487 86.6856 40.33 86.6856 41.114C86.6856 41.8887 86.8396 42.57 87.1476 43.158C87.4556 43.7367 87.8803 44.1847 88.4216 44.502C88.963 44.8193 89.5743 44.978 90.2556 44.978C90.965 44.978 91.5716 44.824 92.0756 44.516C92.589 44.1987 92.981 43.746 93.2516 43.158H94.7776C94.4136 44.0913 93.835 44.8147 93.0416 45.328C92.2483 45.832 91.3196 46.084 90.2556 46.084C89.3503 46.084 88.5243 45.874 87.7776 45.454C87.0403 45.0247 86.457 44.432 86.0276 43.676C85.5983 42.92 85.3836 42.066 85.3836 41.114ZM98.6201 46.126C97.9014 46.126 97.2481 45.9627 96.6601 45.636C96.0814 45.3093 95.6241 44.8473 95.2881 44.25C94.9614 43.6433 94.7981 42.9433 94.7981 42.15C94.7981 41.366 94.9661 40.6753 95.3021 40.078C95.6474 39.4713 96.1141 39.0093 96.7021 38.692C97.2901 38.3653 97.9481 38.202 98.6761 38.202C99.4041 38.202 100.062 38.3653 100.65 38.692C101.238 39.0093 101.7 39.4667 102.036 40.064C102.381 40.6613 102.554 41.3567 102.554 42.15C102.554 42.9433 102.377 43.6433 102.022 44.25C101.677 44.8473 101.205 45.3093 100.608 45.636C100.011 45.9627 99.3481 46.126 98.6201 46.126ZM98.6201 45.006C99.0774 45.006 99.5068 44.8987 99.9081 44.684C100.309 44.4693 100.631 44.1473 100.874 43.718C101.126 43.2887 101.252 42.766 101.252 42.15C101.252 41.534 101.131 41.0113 100.888 40.582C100.645 40.1527 100.328 39.8353 99.9361 39.63C99.5441 39.4153 99.1194 39.308 98.6621 39.308C98.1954 39.308 97.7661 39.4153 97.3741 39.63C96.9914 39.8353 96.6834 40.1527 96.4501 40.582C96.2168 41.0113 96.1001 41.534 96.1001 42.15C96.1001 42.7753 96.2121 43.3027 96.4361 43.732C96.6694 44.1613 96.9774 44.4833 97.3601 44.698C97.7428 44.9033 98.1628 45.006 98.6201 45.006ZM112.055 38.188C112.653 38.188 113.185 38.314 113.651 38.566C114.118 38.8087 114.487 39.1773 114.757 39.672C115.028 40.1667 115.163 40.7687 115.163 41.478V46H113.903V41.66C113.903 40.8947 113.712 40.3113 113.329 39.91C112.956 39.4993 112.447 39.294 111.803 39.294C111.141 39.294 110.613 39.5087 110.221 39.938C109.829 40.358 109.633 40.9693 109.633 41.772V46H108.373V41.66C108.373 40.8947 108.182 40.3113 107.799 39.91C107.426 39.4993 106.917 39.294 106.273 39.294C105.611 39.294 105.083 39.5087 104.691 39.938C104.299 40.358 104.103 40.9693 104.103 41.772V46H102.829V38.328H104.103V39.434C104.355 39.0327 104.691 38.7247 105.111 38.51C105.541 38.2953 106.012 38.188 106.525 38.188C107.169 38.188 107.739 38.3327 108.233 38.622C108.728 38.9113 109.097 39.336 109.339 39.896C109.554 39.3547 109.909 38.9347 110.403 38.636C110.898 38.3373 111.449 38.188 112.055 38.188ZM125.079 38.188C125.676 38.188 126.208 38.314 126.675 38.566C127.142 38.8087 127.51 39.1773 127.781 39.672C128.052 40.1667 128.187 40.7687 128.187 41.478V46H126.927V41.66C126.927 40.8947 126.736 40.3113 126.353 39.91C125.98 39.4993 125.471 39.294 124.827 39.294C124.164 39.294 123.637 39.5087 123.245 39.938C122.853 40.358 122.657 40.9693 122.657 41.772V46H121.397V41.66C121.397 40.8947 121.206 40.3113 120.823 39.91C120.45 39.4993 119.941 39.294 119.297 39.294C118.634 39.294 118.107 39.5087 117.715 39.938C117.323 40.358 117.127 40.9693 117.127 41.772V46H115.853V38.328H117.127V39.434C117.379 39.0327 117.715 38.7247 118.135 38.51C118.564 38.2953 119.036 38.188 119.549 38.188C120.193 38.188 120.762 38.3327 121.257 38.622C121.752 38.9113 122.12 39.336 122.363 39.896C122.578 39.3547 122.932 38.9347 123.427 38.636C123.922 38.3373 124.472 38.188 125.079 38.188ZM135.877 41.87C135.877 42.1127 135.863 42.3693 135.835 42.64H129.703C129.749 43.396 130.006 43.9887 130.473 44.418C130.949 44.838 131.523 45.048 132.195 45.048C132.745 45.048 133.203 44.922 133.567 44.67C133.94 44.4087 134.201 44.0633 134.351 43.634H135.723C135.517 44.3713 135.107 44.9733 134.491 45.44C133.875 45.8973 133.109 46.126 132.195 46.126C131.467 46.126 130.813 45.9627 130.235 45.636C129.665 45.3093 129.217 44.8473 128.891 44.25C128.564 43.6433 128.401 42.9433 128.401 42.15C128.401 41.3567 128.559 40.6613 128.877 40.064C129.194 39.4667 129.637 39.0093 130.207 38.692C130.785 38.3653 131.448 38.202 132.195 38.202C132.923 38.202 133.567 38.3607 134.127 38.678C134.687 38.9953 135.116 39.434 135.415 39.994C135.723 40.5447 135.877 41.17 135.877 41.87ZM134.561 41.604C134.561 41.1187 134.453 40.7033 134.239 40.358C134.024 40.0033 133.73 39.7373 133.357 39.56C132.993 39.3733 132.587 39.28 132.139 39.28C131.495 39.28 130.944 39.4853 130.487 39.896C130.039 40.3067 129.782 40.876 129.717 41.604H134.561ZM137.432 39.574C137.656 39.1353 137.974 38.7947 138.384 38.552C138.804 38.3093 139.313 38.188 139.91 38.188V39.504H139.574C138.146 39.504 137.432 40.2787 137.432 41.828V46H136.158V38.328H137.432V39.574ZM139.505 42.15C139.505 41.3567 139.664 40.666 139.981 40.078C140.298 39.4807 140.737 39.0187 141.297 38.692C141.866 38.3653 142.515 38.202 143.243 38.202C144.186 38.202 144.96 38.4307 145.567 38.888C146.183 39.3453 146.589 39.98 146.785 40.792H145.413C145.282 40.3253 145.026 39.9567 144.643 39.686C144.27 39.4153 143.803 39.28 143.243 39.28C142.515 39.28 141.927 39.532 141.479 40.036C141.031 40.5307 140.807 41.2353 140.807 42.15C140.807 43.074 141.031 43.788 141.479 44.292C141.927 44.796 142.515 45.048 143.243 45.048C143.803 45.048 144.27 44.9173 144.643 44.656C145.016 44.3947 145.273 44.0213 145.413 43.536H146.785C146.58 44.32 146.169 44.95 145.553 45.426C144.937 45.8927 144.167 46.126 143.243 46.126C142.515 46.126 141.866 45.9627 141.297 45.636C140.737 45.3093 140.298 44.8473 139.981 44.25C139.664 43.6527 139.505 42.9527 139.505 42.15ZM154.085 41.87C154.085 42.1127 154.071 42.3693 154.043 42.64H147.911C147.958 43.396 148.214 43.9887 148.681 44.418C149.157 44.838 149.731 45.048 150.403 45.048C150.954 45.048 151.411 44.922 151.775 44.67C152.148 44.4087 152.41 44.0633 152.559 43.634H153.931C153.726 44.3713 153.315 44.9733 152.699 45.44C152.083 45.8973 151.318 46.126 150.403 46.126C149.675 46.126 149.022 45.9627 148.443 45.636C147.874 45.3093 147.426 44.8473 147.099 44.25C146.772 43.6433 146.609 42.9433 146.609 42.15C146.609 41.3567 146.768 40.6613 147.085 40.064C147.402 39.4667 147.846 39.0093 148.415 38.692C148.994 38.3653 149.656 38.202 150.403 38.202C151.131 38.202 151.775 38.3607 152.335 38.678C152.895 38.9953 153.324 39.434 153.623 39.994C153.931 40.5447 154.085 41.17 154.085 41.87ZM152.769 41.604C152.769 41.1187 152.662 40.7033 152.447 40.358C152.232 40.0033 151.938 39.7373 151.565 39.56C151.201 39.3733 150.795 39.28 150.347 39.28C149.703 39.28 149.152 39.4853 148.695 39.896C148.247 40.3067 147.99 40.876 147.925 41.604H152.769Z" fill="#111827"/>
</g>
<defs>
<clipPath id="clip0_2023_5596">
<rect width="155" height="46" fill="white" transform="translate(0.5)"/>
</clipPath>
</defs>
</svg>
